<?xml version="1.0" encoding="utf-8"?>
<!-- Generator: Adobe Illustrator 27.3.1, SVG Export Plug-In . SVG Version: 6.00 Build 0)  -->
<svg version="1.1" id="Шар_1" xmlns="http://www.w3.org/2000/svg" xmlns:xlink="http://www.w3.org/1999/xlink" x="0px" y="0px"
	 viewBox="0 0 1000 1000" style="enable-background:new 0 0 1000 1000;" xml:space="preserve">
<style type="text/css">
	.st0{fill:url(#SVGID_1_);}
	.st1{fill:url(#SVGID_00000049214795796370402560000006460654475116686485_);}
	.st2{fill:url(#SVGID_00000031891538153815373650000015116650507400301963_);}
	.st3{fill:url(#SVGID_00000150785707515110818620000014272758449733067445_);}
	.st4{fill:url(#SVGID_00000174559637273797113850000009049063260374666122_);}
	.st5{fill:url(#SVGID_00000145743735859830274270000001331217886095620992_);}
	.st6{fill:url(#SVGID_00000007424830596633742780000000259030917992321162_);}
	.st7{fill:url(#SVGID_00000085240565985851373540000005902833467857109663_);}
	.st8{fill:url(#SVGID_00000144319887219589074590000017935487708657233068_);}
	.st9{fill:url(#SVGID_00000023985992015425722590000005536918703783698079_);}
	.st10{fill:url(#SVGID_00000168826469628237705200000002450964591473030799_);}
	.st11{fill:url(#SVGID_00000109716180951573967200000014607227046525046409_);}
	.st12{fill:url(#SVGID_00000063621392699569906360000001498443526552696509_);}
	.st13{fill:url(#SVGID_00000121969264436095494520000015365091541033973128_);}
	.st14{fill:url(#SVGID_00000026147592064683588720000007751480666472741794_);}
	.st15{fill:url(#SVGID_00000100381419684455711300000012480091086890300059_);}
	.st16{fill:url(#SVGID_00000164480925001722454840000005748543396923761536_);}
	.st17{fill:url(#SVGID_00000015343067639672314230000015949449229018896051_);}
	.st18{fill:url(#SVGID_00000021828489019691905900000000744885988595093178_);}
	@keyframes rotate {
		from {
		  transform: rotate(0deg);
		}
		to {
		  transform: rotate(360deg);
		}
	  }
	  
	  #rhombus {
		animation: rotate 5s linear infinite;
		transform-origin: 50% 50%;
	  }
</style>
<g id="center_x5F_ball_00000171694191522717887570000007119872906592995756_">
	
		<radialGradient id="SVGID_1_" cx="231.4039" cy="279.5614" r="22.1897" gradientTransform="matrix(3.9923 0 0 3.9923 -423.4247 -610.2381)" gradientUnits="userSpaceOnUse">
		<stop  offset="0" style="stop-color:#000000"/>
		<stop  offset="1" style="stop-color:#00FF00"/>
	</radialGradient>
	<path class="st0" d="M499.2,593.7c-23.6,0-45.6-9.1-62.1-25.6c-16.4-16.5-25.4-38.3-25.2-61.5c0.2-23.7,9.8-46,27-62.8
		c16.9-16.6,39.2-25.7,62.9-25.7c23.6,0,45.6,9.1,62.1,25.6c16.2,16.3,25.2,38.1,25.1,61.3c-0.1,23.8-9.6,46.2-26.7,63.1
		C545.3,584.5,522.9,593.7,499.2,593.7z"/>
	<path d="M501.7,427.3c20.2,0,40.3,7.6,55.5,22.9c30.4,30.5,29.6,80.3-1.6,111c-15.7,15.4-36.1,23.1-56.3,23.1s-40.3-7.6-55.5-22.9
		c-30.6-30.7-29.8-80.3,1.6-111C461,435,481.4,427.3,501.7,427.3 M501.7,408.4v18.8V408.4c-26.1,0-50.8,10.1-69.5,28.4
		c-19,18.6-29.6,43.3-29.7,69.6c-0.2,25.7,9.8,50,27.9,68.3c18.3,18.3,42.7,28.4,68.8,28.4s50.9-10.1,69.6-28.5
		c9.5-9.4,17-20.4,22-32.6c4.9-11.9,7.5-24.3,7.5-37.2c0.1-25.7-9.8-49.9-27.8-68C552.2,418.5,527.8,408.4,501.7,408.4L501.7,408.4z
		"/>
</g>
<g id="rhombus">
	<g id="paths_00000162317019940051600980000003734090116286087345_">
		<g id="bottom_x5F_right_x5F_path">
			
				<linearGradient id="SVGID_00000044886456764193853920000008512856253968690071_" gradientUnits="userSpaceOnUse" x1="472.4169" y1="813.21" x2="896.1902" y2="389.4366" gradientTransform="matrix(1 0 0 1 0 82.11)">
				<stop  offset="0" style="stop-color:#FF00FF"/>
				<stop  offset="1" style="stop-color:#00FFFF"/>
			</linearGradient>
			<path style="fill:url(#SVGID_00000044886456764193853920000008512856253968690071_);" d="M532.5,863.3c-0.6,0-1.1-0.1-1.6-0.2
				c-3-0.5-5.6-2.5-6.9-5.2c-2.3-4.8-6.3-11-12.4-12.7c-1.6-0.4-3.1-1.3-4.3-2.5c-2.9-3-3.5-7.7-1.4-11.3c0.7-1.1,1.5-2,2.5-2.8
				c5-4.6,48.6-48.4,94.6-94.9c45.9-46.3,103.1-103.8,147.7-148.5c24.5-24.4,42.9-42.6,56-55.5c7.3-7.1,13-12.6,17-16.3
				c6.6-6.1,9-8.4,13.3-8.4c4.1,0,7.6,2.5,8.9,6.2c1.3,2.6,9.2,8.7,12.5,10.4c2.5,0.9,4.5,2.8,5.6,5.3c1.4,3.5,0.6,7.5-2,10.2
				L539.1,860.5C537.3,862.3,534.9,863.3,532.5,863.3z"/>
			<path d="M837.1,514.5L837.1,514.5c2.6,6.9,17.2,16.1,18.3,16.1L532.5,853.8c-3.8-7.9-9.7-15.4-18.5-17.8
				C515.9,835.9,831.7,514.5,837.1,514.5 M514,836.1L514,836.1L514,836.1L514,836.1 M837.1,495.7c-8,0-12.6,4.3-19.7,10.8
				c-4,3.8-9.8,9.3-17.2,16.5c-13.3,12.9-31.6,31.1-56.1,55.6c-44.7,44.6-101.8,102.2-147.8,148.4c-45.2,45.6-88,88.7-94.1,94.3
				c-1.9,1.5-3.4,3.3-4.7,5.5c-4.2,7.4-2.9,16.6,3.1,22.6c0.7,0.7,1.4,1.2,2.1,1.8c1.6,1.1,3.3,2,5.2,2.7c0.4,0.2,0.8,0.2,1.1,0.3
				c2,0.6,4.3,3.4,6.3,7.6c2.6,5.6,7.8,9.5,13.8,10.6c1.1,0.2,2.1,0.2,3.3,0.2c5,0,9.8-2,13.4-5.5L868.7,544
				c5.3-5.3,7-13.4,4.2-20.3c-1.9-4.8-5.6-8.4-10.2-10.3c-2.4-1.4-6.9-4.8-8.4-6.6C851.1,500.1,844.5,495.7,837.1,495.7L837.1,495.7
				z"/>
		</g>
		<g id="botom_x5F_left_x5F_path">
			
				<linearGradient id="SVGID_00000001657178815199850800000010687507880065339812_" gradientUnits="userSpaceOnUse" x1="108.519" y1="389.0249" x2="533.6445" y2="814.1506" gradientTransform="matrix(1 0 0 1 0 82.11)">
				<stop  offset="0" style="stop-color:#FFFF00"/>
				<stop  offset="1" style="stop-color:#FF00FF"/>
			</linearGradient>
			<path style="fill:url(#SVGID_00000001657178815199850800000010687507880065339812_);" d="M474.8,863.8c-2.5,0-4.8-1-6.6-2.7
				L141.3,536.7c-2.1-2-3.1-5-2.7-7.9c0.4-2.9,2.1-5.5,4.8-7c6-3.4,10.3-8.5,11.9-14.3c0.9-3.3,3.4-5.8,6.6-6.6
				c0.8-0.2,1.6-0.3,2.5-0.3c2.5,0,4.8,1,6.6,2.7l329,326.4c2.4,2.3,3.3,5.7,2.5,8.9c-0.8,3.2-3.2,5.7-6.3,6.8
				c-5.4,1.7-10.3,6.5-12.5,12.2c-1.1,2.9-3.7,5.2-6.8,5.8C476.1,863.8,475.5,863.8,474.8,863.8z"/>
			<path d="M164.3,510l329,326.4c-8.4,2.6-15.3,9.8-18.4,17.9L148,530.1C155.7,525.8,162,518.6,164.3,510 M164.3,491.2
				c-1.6,0-3.3,0.2-4.9,0.7c-6.5,1.7-11.6,6.8-13.3,13.4c-0.8,3.2-3.6,6.4-7.4,8.4c-5.2,2.9-8.7,8-9.5,13.9
				c-0.8,5.9,1.2,11.8,5.4,15.9l326.9,324.3c3.6,3.5,8.4,5.5,13.3,5.5c1.3,0,2.6-0.2,3.9-0.4c6.2-1.3,11.4-5.7,13.6-11.7
				c1.1-3,3.9-5.8,6.6-6.6c6.3-2,11.1-7.1,12.6-13.5c1.6-6.4-0.3-13.2-5.1-17.9L177.5,496.7C174,493.2,169.2,491.2,164.3,491.2
				L164.3,491.2z"/>
		</g>
		<g id="top_x5F_right_x5F_path">
			
				<linearGradient id="SVGID_00000180358774280465187340000015468609719967306666_" gradientUnits="userSpaceOnUse" x1="471.454" y1="23.5252" x2="897.2324" y2="449.3033" gradientTransform="matrix(1 0 0 1 0 82.11)">
				<stop  offset="0" style="stop-color:#FF00FF"/>
				<stop  offset="1" style="stop-color:#00FFFF"/>
			</linearGradient>
			<path style="fill:url(#SVGID_00000180358774280465187340000015468609719967306666_);" d="M836.8,500.3c-2.5,0-4.9-1-6.7-2.8
				L506.8,170.6c-2.6-2.6-3.4-6.6-2-10.1c1.1-2.9,3.8-5.2,6.8-5.8c0.1-0.1,0.2-0.1,0.3-0.2c0.3-0.2,0.7-0.4,1.1-0.6
				c0.6-0.4,1.1-0.7,1.8-1.1c0.4-0.3,0.9-0.7,1.4-0.9c0.2-0.2,0.6-0.4,0.8-0.6c0.3-0.2,0.7-0.5,1.1-0.7c0.3-0.2,0.9-0.7,1.3-1.1
				c0.2-0.2,0.4-0.5,0.6-0.7c0.3-0.6,0.7-1.1,1.1-1.6c0.3-0.7,0.7-1.4,1.1-2c0.2-1.9,1-3.7,2.2-5.1c1.6-2,4-3.4,6.6-3.6
				c0.2,0,0.6,0,0.8,0c2.5,0,4.9,1,6.7,2.8l324.1,327.7c2.5,2.6,3.4,6.5,2.1,9.9c-1.1,2.9-3.4,4.9-6.2,5.7
				c-3.1,1.7-11.4,8.6-12.9,11.5c-1.1,2.9-3.7,5.2-6.8,5.8C838.1,500.2,837.5,500.3,836.8,500.3z"/>
			<path d="M531.8,146l324.1,327.8c-2.5,0.2-17,11.2-19.1,17.1L513.5,164c0.9,0,1.6-0.3,2.2-0.7c0.6-0.2,1-0.4,1.4-0.7
				c0.7-0.2,1.1-0.6,1.6-1c0.8-0.2,1.4-0.7,1.9-1.1c0.5-0.2,1-0.5,1.3-0.8c0.4-0.2,0.7-0.4,1.1-0.7c0.5-0.2,3.4-2.5,3.8-3.2
				c0.7-0.5,1.1-1.1,1.4-1.9c0.9-0.6,1.5-1.6,1.7-2.7c0.9-0.7,1.4-1.7,1.5-2.8c0.2-0.6,0.3-1.2,0.3-1.9
				C531.6,146.2,531.8,146.1,531.8,146 M531.8,127.1c-0.6,0-1.1,0-1.7,0.1c-5.2,0.5-9.8,3-13,7c-1.8,2.2-3.1,4.8-3.9,7.5
				c-0.1,0.2-0.2,0.3-0.2,0.5c-0.2,0.2-0.4,0.6-0.6,0.8c-0.3,0.2-0.7,0.5-1,0.7c-0.2,0.1-0.3,0.2-0.5,0.3c-0.4,0.2-0.8,0.5-1.2,0.8
				c-0.6,0.3-1.1,0.7-1.7,1.1c-5.4,1.6-9.9,5.7-12,11.1c-2.7,7-1.1,14.8,4.2,20.2l323.2,326.7c3.6,3.6,8.4,5.6,13.4,5.6
				c1.3,0,2.7-0.2,4-0.4c5.7-1.2,10.6-5.2,13-10.4c1.6-2,6.2-5.9,8.7-7.5c5-1.9,9.1-5.9,11-11.1c2.5-6.9,0.9-14.6-4.3-19.8
				L545.2,132.8C541.7,129.2,536.8,127.1,531.8,127.1L531.8,127.1z"/>
		</g>
		<g id="top_x5F_left_x5F_path">
			
				<linearGradient id="SVGID_00000044888337586046055520000018287070551050299035_" gradientUnits="userSpaceOnUse" x1="104.4732" y1="451.0403" x2="533.6744" y2="21.8387" gradientTransform="matrix(1 0 0 1 0 82.11)">
				<stop  offset="0" style="stop-color:#FFFF00"/>
				<stop  offset="1" style="stop-color:#FF00FF"/>
			</linearGradient>
			<path style="fill:url(#SVGID_00000044888337586046055520000018287070551050299035_);" d="M163.4,501.3c-0.8,0-1.6-0.1-2.4-0.3
				c-3.1-0.8-5.6-3.2-6.6-6.2c-1.5-2.7-8.5-9-11.8-10.9c-2.8-0.4-5.3-2-6.8-4.6c-2.2-3.7-1.6-8.4,1.5-11.5l330.5-328.6
				c1.8-1.8,4.2-2.7,6.6-2.7c0.3,0,0.7,0,1.1,0.1c2.9,0.3,5.4,1.9,6.9,4.3l0.8,1.3c4.3,6.9,7.2,11.1,11.5,11.4
				c3.7,0.2,6.9,2.7,8.1,6.1c1.3,3.4,0.4,7.4-2.2,9.9L170,498.5C168.2,500.3,165.8,501.3,163.4,501.3z"/>
			<path d="M474.4,146c4.8,7.5,9.7,16.4,19.6,17.1L163.4,491.8c-1.6-5.5-15.7-17.4-19.1-17.4c-0.1,0-0.2,0-0.3,0L474.4,146
				 M474.4,127.1c-4.9,0-9.8,2-13.3,5.5L130.7,461.2c-6.1,6.1-7.3,15.5-2.9,22.9c2.5,4.3,6.6,7.3,11.1,8.6c2.3,1.6,5.7,4.8,7.1,6.5
				c2.3,5.3,6.9,9.3,12.5,10.9c1.6,0.4,3.2,0.7,4.8,0.7c4.9,0,9.8-2,13.3-5.5l330.6-328.7c5.2-5.2,7-12.9,4.4-19.9
				c-2.5-6.6-8.4-11.4-15.5-12.2c-1.4-1.3-3.6-4.8-5-7.1c-0.2-0.5-0.6-0.9-0.8-1.3c-3-4.8-8.1-8-13.8-8.7
				C475.8,127.2,475.1,127.1,474.4,127.1L474.4,127.1z"/>
		</g>
	</g>
	<g id="balls_00000086693268071300183430000002182499013067678629_">
		<g id="bottom_x5F_ball_00000058551427501454128360000010973174382062374024_">
			
				<radialGradient id="SVGID_00000178925838879703990360000014662598957627857033_" cx="503.6053" cy="132.8571" r="40.6737" gradientTransform="matrix(1 0 0 -1 0 997.89)" gradientUnits="userSpaceOnUse">
				<stop  offset="0" style="stop-color:#FFFFFF"/>
				<stop  offset="1" style="stop-color:#FF00FF"/>
			</radialGradient>
			<path style="fill:url(#SVGID_00000178925838879703990360000014662598957627857033_);" d="M503.2,905.6
				c-13.3,0-25.7-6.5-33.2-17.3c-6.1-8.9-8.5-19.7-6.5-30.4c2-10.7,8-20,17-26.1c7-4.8,15.1-7.4,23.4-7.4c13.3,0,25.7,6.5,33.2,17.3
				c6.1,8.9,8.5,19.7,6.5,30.4c-2,10.7-8,20-17,26.1C519.8,903.1,511.7,905.6,503.2,905.6z"/>
			<path d="M504,833.9c9.8,0,19.5,4.6,25.5,13.3c9.8,14.1,6.1,33.5-8.1,43.4c-5.5,3.9-11.9,5.7-18.1,5.7c-9.8,0-19.5-4.6-25.5-13.3
				c-9.8-14.1-6.1-33.5,8.1-43.4C491.4,835.7,497.7,833.9,504,833.9 M504,815v18.8V815L504,815c-10.3,0-20.3,3.1-28.8,9
				c-22.8,15.8-28.5,47.1-12.9,69.6c9.3,13.4,24.6,21.3,41,21.3c10.3,0,20.3-3.1,28.8-9c11-7.6,18.4-19.1,20.9-32.2
				c2.5-13.2-0.4-26.5-8-37.5C535.7,823,520.4,815,504,815L504,815z"/>
		</g>
		<g id="right_x5F_ball">
			
				<radialGradient id="SVGID_00000008835342943985955020000008113309198315663006_" cx="865.2595" cy="495.8453" r="40.6622" gradientTransform="matrix(1 0 0 -1 0 997.89)" gradientUnits="userSpaceOnUse">
				<stop  offset="0" style="stop-color:#FFFFFF"/>
				<stop  offset="1" style="stop-color:#00FFFF"/>
			</radialGradient>
			<path style="fill:url(#SVGID_00000008835342943985955020000008113309198315663006_);" d="M864.9,542.6
				c-13.3,0-25.7-6.5-33.2-17.3c-6.1-8.9-8.5-19.7-6.5-30.4c2-10.7,8-20,17-26.1c7-4.8,15.1-7.4,23.4-7.4c13.3,0,25.7,6.5,33.2,17.3
				c12.7,18.4,8,43.7-10.5,56.5C881.4,540.1,873.3,542.6,864.9,542.6z"/>
			<path d="M865.7,470.9c9.8,0,19.5,4.6,25.5,13.3c9.8,14.1,6.1,33.5-8.1,43.4c-5.5,3.9-11.9,5.7-18.1,5.7
				c-9.8,0-19.5-4.6-25.5-13.3c-9.8-14.1-6.1-33.5,8.1-43.4C853.1,472.7,859.4,470.9,865.7,470.9 M865.7,452v18.8V452L865.7,452
				c-10.3,0-20.3,3.1-28.8,9c-11,7.6-18.4,19.1-20.9,32.2c-2.5,13.2,0.4,26.5,8,37.5c9.3,13.4,24.6,21.3,41,21.3
				c10.3,0,20.3-3.1,28.8-9c11-7.6,18.4-19.1,20.9-32.2c2.5-13.2-0.4-26.5-8-37.5C897.3,460,882,452,865.7,452L865.7,452z"/>
		</g>
		<g id="left_x5F_ball">
			
				<radialGradient id="SVGID_00000108305460214586613260000001257587272111806854_" cx="134.7405" cy="495.5995" r="40.6622" gradientTransform="matrix(1 0 0 -1 0 997.89)" gradientUnits="userSpaceOnUse">
				<stop  offset="0" style="stop-color:#FFFFFF"/>
				<stop  offset="1" style="stop-color:#FFFF00"/>
			</radialGradient>
			<path style="fill:url(#SVGID_00000108305460214586613260000001257587272111806854_);" d="M134.3,542.9
				c-13.3,0-25.7-6.5-33.2-17.3c-12.7-18.4-8-43.7,10.5-56.5c7-4.8,15.1-7.4,23.4-7.4c13.3,0,25.7,6.5,33.2,17.3
				c6.1,8.9,8.5,19.7,6.5,30.4c-2,10.7-8,20-17,26.1C150.8,540.4,142.7,542.9,134.3,542.9z"/>
			<path d="M135,471.1c9.8,0,19.5,4.6,25.5,13.3c9.8,14.1,6.1,33.5-8.1,43.4c-5.5,3.9-11.9,5.7-18.1,5.7c-9.8,0-19.5-4.6-25.5-13.3
				c-9.8-14.1-6.1-33.5,8.1-43.4C122.5,473,128.8,471.1,135,471.1 M135,452.3L135,452.3c-10.3,0-20.3,3.1-28.8,9.1
				c-11,7.6-18.4,19.1-20.8,32.2c-2.5,13.2,0.4,26.5,8,37.5c9.3,13.4,24.6,21.3,41,21.3c10.3,0,20.3-3.1,28.8-9.1
				c11-7.6,18.4-19.1,20.8-32.2c2.5-13.2-0.4-26.5-8-37.5C166.7,460.2,151.4,452.3,135,452.3L135,452.3z"/>
		</g>
		<g id="top_x5F_ball_00000032623405828190592630000018033218557041432499_">
			
				<radialGradient id="SVGID_00000010312839248651026980000018245157720371153331_" cx="503.6053" cy="862.9305" r="40.6737" gradientTransform="matrix(1 0 0 -1 0 997.89)" gradientUnits="userSpaceOnUse">
				<stop  offset="0" style="stop-color:#FFFFFF"/>
				<stop  offset="1" style="stop-color:#FF00FF"/>
			</radialGradient>
			<path style="fill:url(#SVGID_00000010312839248651026980000018245157720371153331_);" d="M503.2,175.6
				c-13.3,0-25.7-6.5-33.2-17.3c-6.1-8.9-8.5-19.7-6.5-30.4c2-10.7,8-20,17-26.1c7-4.8,15.1-7.4,23.4-7.4c13.3,0,25.7,6.5,33.2,17.3
				c6.1,8.9,8.5,19.7,6.5,30.4c-2,10.7-8,20-17,26.1C519.7,173,511.6,175.6,503.2,175.6z"/>
			<path d="M503.9,103.8c9.8,0,19.5,4.6,25.5,13.3c9.8,14.1,6.1,33.5-8.1,43.4c-5.5,3.9-11.9,5.7-18.1,5.7
				c-9.8,0-19.5-4.6-25.5-13.3c-9.8-14.1-6.1-33.5,8.1-43.4C491.4,105.6,497.7,103.8,503.9,103.8 M503.9,84.9v18.8V84.9L503.9,84.9
				c-10.3,0-20.3,3.1-28.8,9c-11,7.6-18.4,19.1-20.9,32.2c-2.5,13.2,0.4,26.5,8,37.5c9.3,13.4,24.6,21.3,41,21.3
				c10.3,0,20.3-3.1,28.8-9c22.8-15.8,28.5-47.1,12.9-69.6C535.6,92.9,520.3,84.9,503.9,84.9L503.9,84.9z"/>
		</g>
	</g>
</g>
<g id="right_x5F_bumerang">
	<g id="paths_00000075862081961989643520000015936708599204100234_">
		<g id="bottom_x5F_path_00000072254514210553670010000014519779701482357438_">
			
				<linearGradient id="SVGID_00000148633038780043656500000015306478455074569859_" gradientUnits="userSpaceOnUse" x1="682.3325" y1="369.4494" x2="873.4297" y2="819.6467" gradientTransform="matrix(1 0 0 1 0 82.11)">
				<stop  offset="0" style="stop-color:#00FFFF"/>
				<stop  offset="1" style="stop-color:#0000FF"/>
			</linearGradient>
			<path style="fill:url(#SVGID_00000148633038780043656500000015306478455074569859_);" d="M821.9,830.5c-0.5,0-1.1-0.1-1.6-0.2
				c-3.1-0.5-5.7-2.5-7-5.4L686.1,545.3c-1.6-3.4-0.9-7.5,1.6-10.2c1.8-2,4.3-3,7-3c1.1,0,2,0.2,3.1,0.5c2.8,1,5.8,1.5,8.9,1.5
				c7.9,0,15.6-3,20.6-8c1.8-1.8,4.2-2.8,6.7-2.8c0.6,0,1.1,0.1,1.6,0.2c3,0.6,5.7,2.5,6.9,5.4l127.3,280c1.6,3.5,0.9,7.8-1.9,10.6
				c-1.8,1.8-4.3,2.8-6.7,2.8c-1.3,0-2.6-0.2-3.9-0.8c-2.4-1.1-5.2-1.6-8.4-1.6c-7.6,0-15.8,3.3-20.4,8.1
				C826.9,829.5,824.4,830.5,821.9,830.5z"/>
			<path d="M734.1,532.6l127.3,280c-3.7-1.6-7.9-2.5-12.2-2.5c-10,0-20.7,4.1-27.2,11L694.7,541.3c3.9,1.3,7.9,2,12,2
				C716.8,543.3,727.1,539.5,734.1,532.6 M734.1,513.7c-5,0-9.8,2-13.4,5.6c-3.2,3.2-8.5,5.2-13.8,5.2c-2.1,0-4.1-0.3-5.9-0.9
				c-2-0.7-4.1-1.1-6.2-1.1c-5.2,0-10.3,2.1-13.9,6.1c-5.1,5.6-6.4,13.6-3.2,20.5l127.2,279.7c2.6,5.7,7.9,9.8,14,10.8
				c1.1,0.2,2.1,0.2,3.1,0.2c5.1,0,10.1-2,13.7-5.8c2.9-2.9,8.5-5.2,13.6-5.2c1.8,0,3.4,0.2,4.6,0.8c2.5,1.1,5.1,1.6,7.7,1.6
				c4.9,0,9.8-2,13.4-5.6c5.5-5.6,7-13.9,3.8-21.1L751.2,524.7c-2.5-5.7-7.7-9.7-13.8-10.7C736.3,513.8,735.1,513.7,734.1,513.7
				L734.1,513.7z"/>
		</g>
		<g id="top_x5F_path_00000129190884043709049760000000144693513095570877_">
			
				<linearGradient id="SVGID_00000133496443960847264230000015829534204085532599_" gradientUnits="userSpaceOnUse" x1="681.2298" y1="470.1398" x2="873.619" y2="16.9002" gradientTransform="matrix(1 0 0 1 0 82.11)">
				<stop  offset="0" style="stop-color:#00FFFF"/>
				<stop  offset="1" style="stop-color:#0000FF"/>
			</linearGradient>
			<path style="fill:url(#SVGID_00000133496443960847264230000015829534204085532599_);" d="M732.7,481.1c-2.7,0-5.2-1.2-7-3.1
				c-5.2-4.8-13.4-7.9-20.4-7.9c-2.7,0-5.1,0.4-7.1,1.3c-1.2,0.5-2.5,0.7-3.8,0.7c-2.5,0-4.9-1-6.7-2.8c-2.7-2.8-3.4-7-1.9-10.5
				l127.4-284.1c1.2-2.8,3.8-4.8,6.7-5.4c0.7-0.2,1.2-0.2,1.9-0.2c2.4,0,4.6,0.9,6.4,2.5c6.2,5.7,15.1,9.2,23.8,9.1
				c1.8,0,3.6-0.2,5.3-0.4c0.8-0.2,1.6-0.3,2.5-0.3c3.4,0,6.5,1.8,8.2,4.8c2.4,4.1,1,7.5-0.6,11.4c-0.8,2-2,4.9-3.6,8.6
				c-3,7.1-7.4,17.2-12.9,30c-11,25.1-25.7,58.4-40.5,91.5C796.3,357.7,750,461,741.8,475C740.9,476.7,738.3,481.1,732.7,481.1
				C732.7,481.1,732.7,481.1,732.7,481.1z"/>
			<path d="M821.9,178.7c8,7.4,19.2,11.6,30.1,11.6c2.6,0,5.2-0.2,7.7-0.7l0.1-0.1c1.6,0-123.6,282.2-127,282.2
				c-0.1,0-0.1-0.1-0.1-0.2c-6.8-6.5-17.5-10.9-27.4-10.9c-3.8,0-7.5,0.7-10.8,2.1L821.9,178.7 M821.9,159.8c-1.2,0-2.5,0.2-3.8,0.4
				c-5.9,1.2-10.9,5.2-13.4,10.7c-0.2,0.2-127.4,284.1-127.4,284.1c-3.2,7.1-1.7,15.4,3.8,21c3.6,3.7,8.4,5.7,13.4,5.7
				c2.5,0,5.1-0.5,7.5-1.6c0.8-0.3,2-0.6,3.4-0.6c4.6,0,10.2,2.1,13.8,5.2c3.4,3.6,8.3,5.8,13.6,5.8c3.9,0,11.3-1.2,16.6-9.6
				c0.6-0.9,1.2-2,2-3.5c1.2-2.2,2.8-5.3,4.8-9.5c3.6-7.4,8.7-18.2,15-32c14.3-30.9,31.5-69.4,43.6-96.4
				c15.3-34.3,31-69.6,42.9-96.9c20.9-47.9,20.9-48.2,21-53c0.1-10.3-8.2-18.8-18.6-19c-0.1,0-0.2,0-0.3,0c-1.6,0-3,0.2-4.5,0.6
				c-1.1,0.2-2.1,0.2-3.3,0.2c-6.3,0-12.8-2.5-17.4-6.6C831.2,161.5,826.6,159.8,821.9,159.8L821.9,159.8z"/>
		</g>
	</g>
	<g id="balls_00000179628814749816458520000016968404991775919801_">
		<g id="bottom_x5F_ball_00000034784231019439863410000017893878246025294481_">
			
				<radialGradient id="SVGID_00000140015519214750442710000010156913922892663720_" cx="850.1075" cy="146.4999" r="50.9611" gradientTransform="matrix(1 0 0 -1 0 997.89)" gradientUnits="userSpaceOnUse">
				<stop  offset="0" style="stop-color:#FFFFFF"/>
				<stop  offset="1" style="stop-color:#0000FF"/>
			</radialGradient>
			<path style="fill:url(#SVGID_00000140015519214750442710000010156913922892663720_);" d="M850.9,902.4c-14.3,0-28-6-37.8-16.5
				c-19.3-20.7-18.5-53,1.9-72c9.3-8.7,21.5-13.4,34.3-13.4c14.3,0,28,6,37.8,16.5c9.3,10,14.3,23,14,36.5
				c-0.3,13.7-6,26.2-15.9,35.5C875.9,897.6,863.7,902.4,850.9,902.4z"/>
			<path d="M849.3,809.8c11.2,0,22.5,4.5,30.9,13.5c15.8,17,15.2,43.3-1.4,58.8c-7.8,7.3-17.8,10.9-27.8,10.9
				c-11.2,0-22.5-4.5-30.9-13.5c-15.8-17-15.2-43.3,1.4-58.8C829.3,813.4,839.3,809.8,849.3,809.8 M849.3,790.9v18.8V790.9
				c-15.2,0-29.7,5.7-40.6,16c-11.8,11-18.4,26-18.8,42.1c-0.4,16.1,5.5,31.4,16.5,43.3c11.6,12.4,27.9,19.5,44.7,19.5
				c15.2,0,29.7-5.7,40.6-16c11.8-11,18.4-26,18.8-42.1c0.4-16.1-5.5-31.4-16.5-43.3C882.4,798,866.1,790.9,849.3,790.9L849.3,790.9
				z"/>
		</g>
		<g id="center_x5F_ball_00000109007699128856379690000004991731252002819477_">
			
				<radialGradient id="SVGID_00000109027663138740278030000014625086620815960704_" cx="705.7316" cy="495.8044" r="50.9611" gradientTransform="matrix(1 0 0 -1 0 997.89)" gradientUnits="userSpaceOnUse">
				<stop  offset="0" style="stop-color:#FFFFFF"/>
				<stop  offset="1" style="stop-color:#0000FF"/>
			</radialGradient>
			<path style="fill:url(#SVGID_00000109027663138740278030000014625086620815960704_);" d="M706.5,553.1c-14.3,0-28-6-37.8-16.5
				c-19.3-20.7-18.5-53,1.9-72c9.3-8.7,21.5-13.4,34.3-13.4c14.3,0,28,6,37.8,16.5c9.3,10,14.3,23,14,36.5
				c-0.3,13.7-6,26.2-15.9,35.5C731.5,548.3,719.4,553.1,706.5,553.1z"/>
			<path d="M704.9,460.5c11.2,0,22.5,4.5,30.9,13.5c15.8,17,15.2,43.3-1.4,58.8c-7.8,7.3-17.8,10.9-27.8,10.9
				c-11.2,0-22.5-4.5-30.9-13.5c-15.8-17-15.2-43.3,1.4-58.8C684.9,464.1,694.9,460.5,704.9,460.5 M704.9,441.7v18.8V441.7
				c-15.2,0-29.7,5.7-40.6,16c-24.2,22.5-25.2,60.9-2.4,85.4c11.6,12.4,27.9,19.5,44.7,19.5c15.2,0,29.7-5.7,40.6-16
				c11.8-11,18.4-26,18.8-42.1c0.4-16.1-5.5-31.4-16.5-43.3C738,448.7,721.8,441.7,704.9,441.7L704.9,441.7z"/>
		</g>
		<g id="top_x5F_ball_00000159433847978565217350000006084935139389686683_">
			
				<radialGradient id="SVGID_00000000215579441002034420000010714742483058853010_" cx="850.1075" cy="848.5502" r="50.9611" gradientTransform="matrix(1 0 0 -1 0 997.89)" gradientUnits="userSpaceOnUse">
				<stop  offset="0" style="stop-color:#FFFFFF"/>
				<stop  offset="1" style="stop-color:#0000FF"/>
			</radialGradient>
			<path style="fill:url(#SVGID_00000000215579441002034420000010714742483058853010_);" d="M850.9,200.3c-14.3,0-28-6-37.8-16.5
				c-19.3-20.7-18.5-53,1.9-72c9.3-8.7,21.5-13.4,34.3-13.4c14.3,0,28,6,37.8,16.5c9.3,10,14.3,23,14,36.5
				c-0.3,13.7-6,26.2-15.9,35.5C875.9,195.6,863.7,200.3,850.9,200.3z"/>
			<path d="M849.3,107.7c11.2,0,22.5,4.5,30.9,13.5c15.8,17,15.2,43.3-1.4,58.8c-7.8,7.3-17.8,10.9-27.8,10.9
				c-11.2,0-22.5-4.5-30.9-13.5c-15.8-17-15.2-43.3,1.4-58.8C829.3,111.3,839.3,107.7,849.3,107.7 M849.3,88.9v18.8V88.9
				c-15.2,0-29.7,5.7-40.6,16c-24.2,22.5-25.2,60.9-2.4,85.4c11.6,12.4,27.9,19.5,44.7,19.5c15.2,0,29.7-5.7,40.6-16
				c24.2-22.5,25.2-60.9,2.4-85.4C882.4,96,866.1,88.9,849.3,88.9L849.3,88.9z"/>
		</g>
	</g>
</g>
<g id="left_x5F_bumerang">
	<g id="paths">
		<g id="bottom_x5F_path">
			
				<linearGradient id="SVGID_00000078747660960914571220000013097101105512429978_" gradientUnits="userSpaceOnUse" x1="125.182" y1="819.2939" x2="316.0939" y2="369.5334" gradientTransform="matrix(1 0 0 1 0 82.11)">
				<stop  offset="0" style="stop-color:#FF0000"/>
				<stop  offset="1" style="stop-color:#FFFF00"/>
			</linearGradient>
			<path style="fill:url(#SVGID_00000078747660960914571220000013097101105512429978_);" d="M176.8,830.2c-2.5,0-5-1.1-6.8-2.9
				c-4.8-5-12.5-7.9-20.5-7.9c-3.2,0-6.3,0.5-9.2,1.4c-0.7,0.2-1.3,0.3-2,0.4l0,0c-0.2,0-0.5,0.1-0.7,0.1c0,0-0.2,0-0.3,0
				c-3.2,0-6.2-1.6-7.9-4.3c-1.8-2.9-2-6.5-0.4-9.5c0,0,0-0.1,0.1-0.1c1.7-3.5,19.2-42.1,39.4-86.7c37-81.4,82.9-183,87.8-192.4
				c1.4-2.7,3.9-4.5,6.9-5c0.5-0.1,1-0.1,1.5-0.1c2.5,0,4.8,1,6.6,2.7c3.8,3.7,21.5,6.5,31.1,6.5c0.1,0,0.2,0,0.2,0
				c0.4-0.1,0.7-0.1,1.1-0.1c2.7,0,5.3,1.1,7.1,3.3c2.4,2.8,2.9,6.7,1.5,10.1l-127,279.1c-1.3,2.9-3.9,4.8-7,5.4
				C177.9,830.2,177.3,830.2,176.8,830.2z"/>
			<path d="M264.7,532.6c7.6,7.5,31.5,9.2,37.7,9.2c0.7,0,1.2,0,1.4-0.1l-127,279.1c-6.9-7.1-17.1-10.8-27.3-10.8
				c-4.2,0-8.3,0.7-12.1,1.9C138,811.3,257,547.6,264.7,532.6 M303.7,541.7L303.7,541.7 M137.4,811.9L137.4,811.9L137.4,811.9
				L137.4,811.9 M264.7,513.8c-1,0-2,0.1-3,0.2c-5.9,1-11,4.7-13.8,10c-4.6,8.9-42.5,92.6-88,192.9c-19,42-37,81.7-39.2,86.3
				c-1.3,2.5-2,5.2-2.1,8.2c-0.2,8.1,4.8,15.5,12.4,18.3c1.5,0.6,3,0.9,4.6,1.1c0.7,0.1,1.2,0.1,1.9,0.1c1.7,0,3.4-0.2,5.1-0.7
				c0.2-0.1,0.5-0.2,0.7-0.2c1.9-0.6,4.1-0.9,6.2-0.9c5.5,0,10.7,2,13.7,5c3.6,3.7,8.5,5.7,13.6,5.7c1.1,0,2.1-0.1,3.2-0.2
				c6.1-1.1,11.4-5.1,13.9-10.7l126.8-278.8c1.2-2.5,1.9-5.2,1.9-8.2c0-10.1-7.9-18.4-17.9-18.8c-0.3,0-0.7,0-0.9,0
				c-0.4,0-0.9,0-1.3,0.1c-0.1,0-0.2,0-0.3,0c-7.5-0.1-21-2.1-24.7-4.3C273.9,515.5,269.3,513.8,264.7,513.8L264.7,513.8z"/>
		</g>
		<g id="top_x5F_path">
			
				<linearGradient id="SVGID_00000072272778293879855490000006194758165554025375_" gradientUnits="userSpaceOnUse" x1="123.6293" y1="13.2053" x2="317.5732" y2="470.1075" gradientTransform="matrix(1 0 0 1 0 82.11)">
				<stop  offset="0" style="stop-color:#FF0000"/>
				<stop  offset="1" style="stop-color:#FFFF00"/>
			</linearGradient>
			<path style="fill:url(#SVGID_00000072272778293879855490000006194758165554025375_);" d="M264.8,481.8c-0.6,0-1.1-0.1-1.6-0.2
				c-3.1-0.6-5.7-2.6-7-5.5L130.3,193.3c-1.5-3.3-0.9-7.1,1.4-9.8c1.8-2.2,4.5-3.4,7.2-3.4c0.7,0,1.5,0.1,2.2,0.2
				c2,0.5,4.3,0.7,6.5,0.7c8.6,0,17.3-3.7,23.1-9.8c1.8-1.9,4.3-2.9,6.8-2.9c0.5,0,1.1,0.1,1.6,0.2c3.1,0.6,5.7,2.5,7,5.5
				l126.8,284.7c1.6,3.4,0.9,7.5-1.7,10.2c-1.8,2-4.3,3-6.9,3c-1.1,0-2.1-0.2-3.2-0.6c-2.4-0.8-5-1.2-7.8-1.2
				c-8,0-16.5,3.5-21.6,8.8C269.8,480.8,267.3,481.8,264.8,481.8z"/>
			<path d="M177.5,177.8l126.7,284.7c-3.4-1.2-7.2-1.8-11-1.8c-10.6,0-21.5,4.5-28.4,11.8L138.9,189.6c2.9,0.7,5.8,1,8.7,1
				C158.8,190.6,170,185.7,177.5,177.8 M177.5,158.9c-5.2,0-10.1,2.1-13.7,5.9c-4,4.3-10.3,6.9-16.3,6.9c-1.5,0-2.9-0.2-4.3-0.5
				c-1.5-0.3-2.9-0.5-4.3-0.5c-5.5,0-10.9,2.5-14.5,6.8c-4.6,5.5-5.7,13.2-2.7,19.7l125.9,282.9c2.5,5.7,7.8,9.8,14,10.9
				c1.1,0.2,2.1,0.2,3.2,0.2c5.1,0,10-2,13.6-5.8c3.4-3.5,9.5-6,14.8-6c1.7,0,3.3,0.2,4.6,0.7c2,0.7,4.2,1.1,6.3,1.1
				c5.2,0,10.2-2.1,13.8-6.1c5.2-5.6,6.5-13.6,3.4-20.5L194.7,170.1c-2.5-5.7-7.8-9.8-14-10.9C179.7,159,178.6,158.9,177.5,158.9
				L177.5,158.9z"/>
		</g>
	</g>
	<g id="balls">
		<g id="bottom_x5F_ball">
			
				<radialGradient id="SVGID_00000168079620640599296160000011585371844680385959_" cx="148.5242" cy="146.6637" r="50.9489" gradientTransform="matrix(1 0 0 -1 0 997.89)" gradientUnits="userSpaceOnUse">
				<stop  offset="0" style="stop-color:#FFFFFF"/>
				<stop  offset="1" style="stop-color:#FF0000"/>
			</radialGradient>
			<path style="fill:url(#SVGID_00000168079620640599296160000011585371844680385959_);" d="M147.7,902.2
				c-12.8,0-24.9-4.8-34.3-13.4c-20.4-19-21.2-51.4-1.9-72c9.8-10.5,23.5-16.5,37.8-16.5c12.8,0,24.9,4.8,34.3,13.4
				c20.4,19,21.2,51.4,1.9,72C175.7,896.1,162,902.2,147.7,902.2z"/>
			<path d="M149.3,809.6c10,0,20,3.6,27.8,10.9c16.6,15.5,17.2,41.8,1.4,58.8c-8.4,8.9-19.7,13.5-30.9,13.5c-10,0-20-3.6-27.8-10.9
				c-16.6-15.5-17.2-41.8-1.4-58.8C126.8,814.1,138.1,809.6,149.3,809.6 M149.3,790.8L149.3,790.8c-16.8,0-33.1,7.1-44.7,19.5
				c-22.9,24.5-21.8,62.8,2.4,85.4c11.1,10.3,25.5,16,40.6,16c16.8,0,33.1-7.1,44.7-19.5c22.9-24.5,21.8-62.8-2.4-85.4
				C179,796.4,164.6,790.8,149.3,790.8L149.3,790.8z"/>
		</g>
		<g id="center_x5F_ball">
			
				<radialGradient id="SVGID_00000024710935028056570060000006305190419059912340_" cx="292.7935" cy="495.8863" r="50.9611" gradientTransform="matrix(1 0 0 -1 0 997.89)" gradientUnits="userSpaceOnUse">
				<stop  offset="0" style="stop-color:#FFFFFF"/>
				<stop  offset="1" style="stop-color:#FF0000"/>
			</radialGradient>
			<path style="fill:url(#SVGID_00000024710935028056570060000006305190419059912340_);" d="M292,553c-12.8,0-24.9-4.8-34.3-13.4
				c-9.9-9.3-15.6-21.9-15.9-35.5c-0.3-13.6,4.7-26.5,14-36.5c9.8-10.5,23.5-16.5,37.8-16.5c12.8,0,24.9,4.8,34.3,13.4
				c20.4,19,21.2,51.4,1.9,72C320,547,306.3,553,292,553z"/>
			<path d="M293.6,460.4c10,0,20,3.6,27.8,10.9c16.6,15.5,17.2,41.8,1.4,58.8c-8.4,8.9-19.7,13.5-30.9,13.5c-10,0-20-3.6-27.8-10.9
				c-16.6-15.5-17.2-41.8-1.4-58.8C271.1,465,282.4,460.4,293.6,460.4 M293.6,441.5L293.6,441.5c-16.8,0-33.1,7.1-44.7,19.5
				c-11.1,11.8-16.9,27.2-16.5,43.3c0.4,16.2,7.1,31.1,18.8,42.1c11.1,10.3,25.5,16,40.6,16c16.8,0,33.1-7.1,44.7-19.5
				c22.9-24.5,21.8-62.8-2.4-85.4C323.3,447.2,308.9,441.5,293.6,441.5L293.6,441.5z"/>
		</g>
		<g id="top_x5F_ball">
			
				<radialGradient id="SVGID_00000088835533516723856280000006328955583820281246_" cx="148.3767" cy="848.878" r="50.9816" gradientTransform="matrix(1 0 0 -1 0 997.89)" gradientUnits="userSpaceOnUse">
				<stop  offset="0" style="stop-color:#FFFFFF"/>
				<stop  offset="1" style="stop-color:#FF0000"/>
			</radialGradient>
			<path style="fill:url(#SVGID_00000088835533516723856280000006328955583820281246_);" d="M147.5,200c-12.8,0-24.9-4.8-34.3-13.4
				c-9.9-9.3-15.6-21.9-15.9-35.5c-0.3-13.6,4.7-26.5,14-36.5C121.2,104,135,98,149.3,98c12.8,0,24.9,4.8,34.3,13.4
				c20.4,19,21.2,51.4,1.9,72C175.6,194,161.8,200,147.5,200z"/>
			<path d="M149.3,107.5c10,0,20,3.6,27.8,10.9c16.6,15.5,17.2,41.8,1.4,58.8c-8.4,8.9-19.7,13.5-30.9,13.5c-10,0-20-3.6-27.8-10.9
				c-16.6-15.5-17.2-41.8-1.4-58.8C126.7,112,138,107.5,149.3,107.5 M149.3,88.6L149.3,88.6c-16.9,0-33.1,7-44.7,19.4
				c-22.9,24.5-21.8,62.8,2.4,85.4c11.1,10.3,25.5,16,40.6,16c16.8,0,33.1-7.1,44.7-19.5c11.1-11.8,16.9-27.2,16.5-43.3
				c-0.4-16.2-7.1-31.1-18.8-42.1C178.8,94.3,164.4,88.6,149.3,88.6L149.3,88.6z"/>
		</g>
	</g>
</g>
</svg>
