<?xml version="1.0" encoding="UTF-8"?>
<svg id="_Шар_1" data-name="Шар 1" xmlns="http://www.w3.org/2000/svg" viewBox="0 0 831.05 830">
  <defs>
    <style>
      .cls-1, .cls-2 {
        stroke-width: 0px;
      }

      .cls-2 {
        fill: #fff;
      }
    </style>
  </defs>
  <g id="center_ball">
    <path class="cls-2" d="M414.68,508.8c-23.6,0-45.6-9.1-62.1-25.6-16.4-16.5-25.4-38.3-25.2-61.5.2-23.7,9.8-46,27-62.8,16.9-16.6,39.2-25.7,62.9-25.7s45.6,9.1,62.1,25.6c16.2,16.3,25.2,38.1,25.1,61.3-.1,23.8-9.6,46.2-26.7,63.1-17,16.4-39.4,25.6-63.1,25.6Z"/>
    <path class="cls-1" d="M417.18,342.4c20.2,0,40.3,7.6,55.5,22.9,30.4,30.5,29.6,80.3-1.6,111-15.7,15.4-36.1,23.1-56.3,23.1s-40.3-7.6-55.5-22.9c-30.6-30.7-29.8-80.3,1.6-111,15.6-15.4,36-23.1,56.3-23.1M417.18,323.5v18.8-18.8c-26.1,0-50.8,10.1-69.5,28.4-19,18.6-29.6,43.3-29.7,69.6-.2,25.7,9.8,50,27.9,68.3,18.3,18.3,42.7,28.4,68.8,28.4s50.9-10.1,69.6-28.5c9.5-9.4,17-20.4,22-32.6,4.9-11.9,7.5-24.3,7.5-37.2.1-25.7-9.8-49.9-27.8-68-18.3-18.3-42.7-28.4-68.8-28.4h0Z"/>
  </g>
  <g id="rhombus">
    <g id="paths">
      <g id="bottom_right_path">
        <path class="cls-2" d="M447.98,778.4c-.6,0-1.1-.1-1.6-.2-3-.5-5.6-2.5-6.9-5.2-2.3-4.8-6.3-11-12.4-12.7-1.6-.4-3.1-1.3-4.3-2.5-2.9-3-3.5-7.7-1.4-11.3.7-1.1,1.5-2,2.5-2.8,5-4.6,48.6-48.4,94.6-94.9,45.9-46.3,103.1-103.8,147.7-148.5,24.5-24.4,42.9-42.6,56-55.5,7.3-7.1,13-12.6,17-16.3,6.6-6.1,9-8.4,13.3-8.4s7.6,2.5,8.9,6.2c1.3,2.6,9.2,8.7,12.5,10.4,2.5.9,4.5,2.8,5.6,5.3,1.4,3.5.6,7.5-2,10.2l-322.9,323.4c-1.8,1.8-4.2,2.8-6.6,2.8Z"/>
        <path class="cls-1" d="M752.58,429.6h0c2.6,6.9,17.2,16.1,18.3,16.1l-322.9,323.2c-3.8-7.9-9.7-15.4-18.5-17.8,1.9-.1,317.7-321.5,323.1-321.5M429.48,751.2h0M752.58,410.8c-8,0-12.6,4.3-19.7,10.8-4,3.8-9.8,9.3-17.2,16.5-13.3,12.9-31.6,31.1-56.1,55.6-44.7,44.6-101.8,102.2-147.8,148.4-45.2,45.6-88,88.7-94.1,94.3-1.9,1.5-3.4,3.3-4.7,5.5-4.2,7.4-2.9,16.6,3.1,22.6.7.7,1.4,1.2,2.1,1.8,1.6,1.1,3.3,2,5.2,2.7.4.2.8.2,1.1.3,2,.6,4.3,3.4,6.3,7.6,2.6,5.6,7.8,9.5,13.8,10.6,1.1.2,2.1.2,3.3.2,5,0,9.8-2,13.4-5.5l322.9-323.1c5.3-5.3,7-13.4,4.2-20.3-1.9-4.8-5.6-8.4-10.2-10.3-2.4-1.4-6.9-4.8-8.4-6.6-3.2-6.7-9.8-11.1-17.2-11.1h0Z"/>
      </g>
      <g id="botom_left_path">
        <path class="cls-2" d="M390.28,778.9c-2.5,0-4.8-1-6.6-2.7L56.78,451.8c-2.1-2-3.1-5-2.7-7.9.4-2.9,2.1-5.5,4.8-7,6-3.4,10.3-8.5,11.9-14.3.9-3.3,3.4-5.8,6.6-6.6.8-.2,1.6-.3,2.5-.3,2.5,0,4.8,1,6.6,2.7l329,326.4c2.4,2.3,3.3,5.7,2.5,8.9s-3.2,5.7-6.3,6.8c-5.4,1.7-10.3,6.5-12.5,12.2-1.1,2.9-3.7,5.2-6.8,5.8-.8.4-1.4.4-2.1.4Z"/>
        <path class="cls-1" d="M79.78,425.1l329,326.4c-8.4,2.6-15.3,9.8-18.4,17.9L63.48,445.2c7.7-4.3,14-11.5,16.3-20.1M79.78,406.3c-1.6,0-3.3.2-4.9.7-6.5,1.7-11.6,6.8-13.3,13.4-.8,3.2-3.6,6.4-7.4,8.4-5.2,2.9-8.7,8-9.5,13.9s1.2,11.8,5.4,15.9l326.9,324.3c3.6,3.5,8.4,5.5,13.3,5.5,1.3,0,2.6-.2,3.9-.4,6.2-1.3,11.4-5.7,13.6-11.7,1.1-3,3.9-5.8,6.6-6.6,6.3-2,11.1-7.1,12.6-13.5,1.6-6.4-.3-13.2-5.1-17.9L92.98,411.8c-3.5-3.5-8.3-5.5-13.2-5.5h0Z"/>
      </g>
      <g id="top_right_path">
        <path class="cls-2" d="M752.28,415.4c-2.5,0-4.9-1-6.7-2.8L422.28,85.7c-2.6-2.6-3.4-6.6-2-10.1,1.1-2.9,3.8-5.2,6.8-5.8.1-.1.2-.1.3-.2.3-.2.7-.4,1.1-.6.6-.4,1.1-.7,1.8-1.1.4-.3.9-.7,1.4-.9.2-.2.6-.4.8-.6.3-.2.7-.5,1.1-.7.3-.2.9-.7,1.3-1.1.2-.2.4-.5.6-.7.3-.6.7-1.1,1.1-1.6.3-.7.7-1.4,1.1-2,.2-1.9,1-3.7,2.2-5.1,1.6-2,4-3.4,6.6-3.6h.8c2.5,0,4.9,1,6.7,2.8l324.1,327.7c2.5,2.6,3.4,6.5,2.1,9.9-1.1,2.9-3.4,4.9-6.2,5.7-3.1,1.7-11.4,8.6-12.9,11.5-1.1,2.9-3.7,5.2-6.8,5.8-.7.3-1.3.4-2,.4Z"/>
        <path class="cls-1" d="M447.28,61.1l324.1,327.8c-2.5.2-17,11.2-19.1,17.1L428.98,79.1c.9,0,1.6-.3,2.2-.7.6-.2,1-.4,1.4-.7.7-.2,1.1-.6,1.6-1,.8-.2,1.4-.7,1.9-1.1.5-.2,1-.5,1.3-.8.4-.2.7-.4,1.1-.7.5-.2,3.4-2.5,3.8-3.2.7-.5,1.1-1.1,1.4-1.9.9-.6,1.5-1.6,1.7-2.7.9-.7,1.4-1.7,1.5-2.8.2-.6.3-1.2.3-1.9-.1-.3.1-.4.1-.5M447.28,42.2c-.6,0-1.1,0-1.7.1-5.2.5-9.8,3-13,7-1.8,2.2-3.1,4.8-3.9,7.5-.1.2-.2.3-.2.5-.2.2-.4.6-.6.8-.3.2-.7.5-1,.7-.2.1-.3.2-.5.3-.4.2-.8.5-1.2.8-.6.3-1.1.7-1.7,1.1-5.4,1.6-9.9,5.7-12,11.1-2.7,7-1.1,14.8,4.2,20.2l323.2,326.7c3.6,3.6,8.4,5.6,13.4,5.6,1.3,0,2.7-.2,4-.4,5.7-1.2,10.6-5.2,13-10.4,1.6-2,6.2-5.9,8.7-7.5,5-1.9,9.1-5.9,11-11.1,2.5-6.9.9-14.6-4.3-19.8L460.68,47.9c-3.5-3.6-8.4-5.7-13.4-5.7h0Z"/>
      </g>
      <g id="top_left_path">
        <path class="cls-2" d="M78.88,416.4c-.8,0-1.6-.1-2.4-.3-3.1-.8-5.6-3.2-6.6-6.2-1.5-2.7-8.5-9-11.8-10.9-2.8-.4-5.3-2-6.8-4.6-2.2-3.7-1.6-8.4,1.5-11.5L383.28,54.3c1.8-1.8,4.2-2.7,6.6-2.7.3,0,.7,0,1.1.1,2.9.3,5.4,1.9,6.9,4.3l.8,1.3c4.3,6.9,7.2,11.1,11.5,11.4,3.7.2,6.9,2.7,8.1,6.1,1.3,3.4.4,7.4-2.2,9.9L85.48,413.6c-1.8,1.8-4.2,2.8-6.6,2.8Z"/>
        <path class="cls-1" d="M389.88,61.1c4.8,7.5,9.7,16.4,19.6,17.1L78.88,406.9c-1.6-5.5-15.7-17.4-19.1-17.4h-.3L389.88,61.1M389.88,42.2c-4.9,0-9.8,2-13.3,5.5L46.18,376.3c-6.1,6.1-7.3,15.5-2.9,22.9,2.5,4.3,6.6,7.3,11.1,8.6,2.3,1.6,5.7,4.8,7.1,6.5,2.3,5.3,6.9,9.3,12.5,10.9,1.6.4,3.2.7,4.8.7,4.9,0,9.8-2,13.3-5.5L422.68,91.7c5.2-5.2,7-12.9,4.4-19.9-2.5-6.6-8.4-11.4-15.5-12.2-1.4-1.3-3.6-4.8-5-7.1-.2-.5-.6-.9-.8-1.3-3-4.8-8.1-8-13.8-8.7-.7-.2-1.4-.3-2.1-.3h0Z"/>
      </g>
    </g>
    <g id="balls">
      <g id="bottom_ball">
        <path class="cls-2" d="M418.68,820.7c-13.3,0-25.7-6.5-33.2-17.3-6.1-8.9-8.5-19.7-6.5-30.4s8-20,17-26.1c7-4.8,15.1-7.4,23.4-7.4,13.3,0,25.7,6.5,33.2,17.3,6.1,8.9,8.5,19.7,6.5,30.4s-8,20-17,26.1c-6.8,4.9-14.9,7.4-23.4,7.4Z"/>
        <path class="cls-1" d="M419.48,749c9.8,0,19.5,4.6,25.5,13.3,9.8,14.1,6.1,33.5-8.1,43.4-5.5,3.9-11.9,5.7-18.1,5.7-9.8,0-19.5-4.6-25.5-13.3-9.8-14.1-6.1-33.5,8.1-43.4,5.5-3.9,11.8-5.7,18.1-5.7M419.48,730.1v18.8-18.8h0c-10.3,0-20.3,3.1-28.8,9-22.8,15.8-28.5,47.1-12.9,69.6,9.3,13.4,24.6,21.3,41,21.3,10.3,0,20.3-3.1,28.8-9,11-7.6,18.4-19.1,20.9-32.2,2.5-13.2-.4-26.5-8-37.5-9.3-13.2-24.6-21.2-41-21.2h0Z"/>
      </g>
      <g id="right_ball">
        <path class="cls-2" d="M780.38,457.7c-13.3,0-25.7-6.5-33.2-17.3-6.1-8.9-8.5-19.7-6.5-30.4,2-10.7,8-20,17-26.1,7-4.8,15.1-7.4,23.4-7.4,13.3,0,25.7,6.5,33.2,17.3,12.7,18.4,8,43.7-10.5,56.5-6.9,4.9-15,7.4-23.4,7.4Z"/>
        <path class="cls-1" d="M781.18,386c9.8,0,19.5,4.6,25.5,13.3,9.8,14.1,6.1,33.5-8.1,43.4-5.5,3.9-11.9,5.7-18.1,5.7-9.8,0-19.5-4.6-25.5-13.3-9.8-14.1-6.1-33.5,8.1-43.4,5.5-3.9,11.8-5.7,18.1-5.7M781.18,367.1v18.8-18.8h0c-10.3,0-20.3,3.1-28.8,9-11,7.6-18.4,19.1-20.9,32.2-2.5,13.2.4,26.5,8,37.5,9.3,13.4,24.6,21.3,41,21.3,10.3,0,20.3-3.1,28.8-9,11-7.6,18.4-19.1,20.9-32.2,2.5-13.2-.4-26.5-8-37.5-9.4-13.3-24.7-21.3-41-21.3h0Z"/>
      </g>
      <g id="left_ball">
        <path class="cls-2" d="M49.78,458c-13.3,0-25.7-6.5-33.2-17.3-12.7-18.4-8-43.7,10.5-56.5,7-4.8,15.1-7.4,23.4-7.4,13.3,0,25.7,6.5,33.2,17.3,6.1,8.9,8.5,19.7,6.5,30.4-2,10.7-8,20-17,26.1-6.9,4.9-15,7.4-23.4,7.4Z"/>
        <path class="cls-1" d="M50.48,386.2c9.8,0,19.5,4.6,25.5,13.3,9.8,14.1,6.1,33.5-8.1,43.4-5.5,3.9-11.9,5.7-18.1,5.7-9.8,0-19.5-4.6-25.5-13.3-9.8-14.1-6.1-33.5,8.1-43.4,5.6-3.8,11.9-5.7,18.1-5.7M50.48,367.4h0c-10.3,0-20.3,3.1-28.8,9.1-11,7.6-18.4,19.1-20.8,32.2-2.5,13.2.4,26.5,8,37.5,9.3,13.4,24.6,21.3,41,21.3,10.3,0,20.3-3.1,28.8-9.1,11-7.6,18.4-19.1,20.8-32.2,2.5-13.2-.4-26.5-8-37.5-9.3-13.4-24.6-21.3-41-21.3h0Z"/>
      </g>
      <g id="top_ball">
        <path class="cls-2" d="M418.68,90.7c-13.3,0-25.7-6.5-33.2-17.3-6.1-8.9-8.5-19.7-6.5-30.4,2-10.7,8-20,17-26.1,7-4.8,15.1-7.4,23.4-7.4,13.3,0,25.7,6.5,33.2,17.3,6.1,8.9,8.5,19.7,6.5,30.4s-8,20-17,26.1c-6.9,4.8-15,7.4-23.4,7.4Z"/>
        <path class="cls-1" d="M419.38,18.9c9.8,0,19.5,4.6,25.5,13.3,9.8,14.1,6.1,33.5-8.1,43.4-5.5,3.9-11.9,5.7-18.1,5.7-9.8,0-19.5-4.6-25.5-13.3-9.8-14.1-6.1-33.5,8.1-43.4,5.6-3.9,11.9-5.7,18.1-5.7M419.38,0v18.8V0h0c-10.3,0-20.3,3.1-28.8,9-11,7.6-18.4,19.1-20.9,32.2-2.5,13.2.4,26.5,8,37.5,9.3,13.4,24.6,21.3,41,21.3,10.3,0,20.3-3.1,28.8-9,22.8-15.8,28.5-47.1,12.9-69.6-9.3-13.4-24.6-21.4-41-21.4h0Z"/>
      </g>
    </g>
  </g>
  <g id="right_bumerang">
    <g id="paths-2" data-name="paths">
      <g id="bottom_path">
        <path class="cls-2" d="M737.38,745.6c-.5,0-1.1-.1-1.6-.2-3.1-.5-5.7-2.5-7-5.4l-127.2-279.6c-1.6-3.4-.9-7.5,1.6-10.2,1.8-2,4.3-3,7-3,1.1,0,2,.2,3.1.5,2.8,1,5.8,1.5,8.9,1.5,7.9,0,15.6-3,20.6-8,1.8-1.8,4.2-2.8,6.7-2.8.6,0,1.1.1,1.6.2,3,.6,5.7,2.5,6.9,5.4l127.3,280c1.6,3.5.9,7.8-1.9,10.6-1.8,1.8-4.3,2.8-6.7,2.8-1.3,0-2.6-.2-3.9-.8-2.4-1.1-5.2-1.6-8.4-1.6-7.6,0-15.8,3.3-20.4,8.1-1.6,1.5-4.1,2.5-6.6,2.5Z"/>
        <path class="cls-1" d="M649.58,447.7l127.3,280c-3.7-1.6-7.9-2.5-12.2-2.5-10,0-20.7,4.1-27.2,11l-127.3-279.8c3.9,1.3,7.9,2,12,2,10.1,0,20.4-3.8,27.4-10.7M649.58,428.8c-5,0-9.8,2-13.4,5.6-3.2,3.2-8.5,5.2-13.8,5.2-2.1,0-4.1-.3-5.9-.9-2-.7-4.1-1.1-6.2-1.1-5.2,0-10.3,2.1-13.9,6.1-5.1,5.6-6.4,13.6-3.2,20.5l127.2,279.7c2.6,5.7,7.9,9.8,14,10.8,1.1.2,2.1.2,3.1.2,5.1,0,10.1-2,13.7-5.8,2.9-2.9,8.5-5.2,13.6-5.2,1.8,0,3.4.2,4.6.8,2.5,1.1,5.1,1.6,7.7,1.6,4.9,0,9.8-2,13.4-5.6,5.5-5.6,7-13.9,3.8-21.1l-127.6-279.8c-2.5-5.7-7.7-9.7-13.8-10.7-1.1-.2-2.3-.3-3.3-.3h0Z"/>
      </g>
      <g id="top_path">
        <path class="cls-2" d="M648.18,396.2c-2.7,0-5.2-1.2-7-3.1-5.2-4.8-13.4-7.9-20.4-7.9-2.7,0-5.1.4-7.1,1.3-1.2.5-2.5.7-3.8.7-2.5,0-4.9-1-6.7-2.8-2.7-2.8-3.4-7-1.9-10.5l127.4-284.1c1.2-2.8,3.8-4.8,6.7-5.4.7-.2,1.2-.2,1.9-.2,2.4,0,4.6.9,6.4,2.5,6.2,5.7,15.1,9.2,23.8,9.1,1.8,0,3.6-.2,5.3-.4.8-.2,1.6-.3,2.5-.3,3.4,0,6.5,1.8,8.2,4.8,2.4,4.1,1,7.5-.6,11.4-.8,2-2,4.9-3.6,8.6-3,7.1-7.4,17.2-12.9,30-11,25.1-25.7,58.4-40.5,91.5-14.1,31.4-60.4,134.7-68.6,148.7-.9,1.7-3.5,6.1-9.1,6.1h0Z"/>
        <path class="cls-1" d="M737.38,93.8c8,7.4,19.2,11.6,30.1,11.6,2.6,0,5.2-.2,7.7-.7l.1-.1c1.6,0-123.6,282.2-127,282.2-.1,0-.1-.1-.1-.2-6.8-6.5-17.5-10.9-27.4-10.9-3.8,0-7.5.7-10.8,2.1l127.4-284M737.38,74.9c-1.2,0-2.5.2-3.8.4-5.9,1.2-10.9,5.2-13.4,10.7-.2.2-127.4,284.1-127.4,284.1-3.2,7.1-1.7,15.4,3.8,21,3.6,3.7,8.4,5.7,13.4,5.7,2.5,0,5.1-.5,7.5-1.6.8-.3,2-.6,3.4-.6,4.6,0,10.2,2.1,13.8,5.2,3.4,3.6,8.3,5.8,13.6,5.8,3.9,0,11.3-1.2,16.6-9.6.6-.9,1.2-2,2-3.5,1.2-2.2,2.8-5.3,4.8-9.5,3.6-7.4,8.7-18.2,15-32,14.3-30.9,31.5-69.4,43.6-96.4,15.3-34.3,31-69.6,42.9-96.9,20.9-47.9,20.9-48.2,21-53,.1-10.3-8.2-18.8-18.6-19h-.3c-1.6,0-3,.2-4.5.6-1.1.2-2.1.2-3.3.2-6.3,0-12.8-2.5-17.4-6.6-3.4-3.3-8-5-12.7-5h0Z"/>
      </g>
    </g>
    <g id="balls-2" data-name="balls">
      <g id="bottom_ball-2" data-name="bottom_ball">
        <path class="cls-2" d="M766.38,817.5c-14.3,0-28-6-37.8-16.5-19.3-20.7-18.5-53,1.9-72,9.3-8.7,21.5-13.4,34.3-13.4,14.3,0,28,6,37.8,16.5,9.3,10,14.3,23,14,36.5-.3,13.7-6,26.2-15.9,35.5-9.3,8.6-21.5,13.4-34.3,13.4Z"/>
        <path class="cls-1" d="M764.78,724.9c11.2,0,22.5,4.5,30.9,13.5,15.8,17,15.2,43.3-1.4,58.8-7.8,7.3-17.8,10.9-27.8,10.9-11.2,0-22.5-4.5-30.9-13.5-15.8-17-15.2-43.3,1.4-58.8,7.8-7.3,17.8-10.9,27.8-10.9M764.78,706v18.8-18.8c-15.2,0-29.7,5.7-40.6,16-11.8,11-18.4,26-18.8,42.1-.4,16.1,5.5,31.4,16.5,43.3,11.6,12.4,27.9,19.5,44.7,19.5,15.2,0,29.7-5.7,40.6-16,11.8-11,18.4-26,18.8-42.1.4-16.1-5.5-31.4-16.5-43.3-11.6-12.4-27.9-19.5-44.7-19.5h0Z"/>
      </g>
      <g id="center_ball-2" data-name="center_ball">
        <path class="cls-2" d="M621.98,468.2c-14.3,0-28-6-37.8-16.5-19.3-20.7-18.5-53,1.9-72,9.3-8.7,21.5-13.4,34.3-13.4,14.3,0,28,6,37.8,16.5,9.3,10,14.3,23,14,36.5-.3,13.7-6,26.2-15.9,35.5-9.3,8.6-21.4,13.4-34.3,13.4Z"/>
        <path class="cls-1" d="M620.38,375.6c11.2,0,22.5,4.5,30.9,13.5,15.8,17,15.2,43.3-1.4,58.8-7.8,7.3-17.8,10.9-27.8,10.9-11.2,0-22.5-4.5-30.9-13.5-15.8-17-15.2-43.3,1.4-58.8,7.8-7.3,17.8-10.9,27.8-10.9M620.38,356.8v18.8-18.8c-15.2,0-29.7,5.7-40.6,16-24.2,22.5-25.2,60.9-2.4,85.4,11.6,12.4,27.9,19.5,44.7,19.5,15.2,0,29.7-5.7,40.6-16,11.8-11,18.4-26,18.8-42.1.4-16.1-5.5-31.4-16.5-43.3-11.5-12.5-27.7-19.5-44.6-19.5h0Z"/>
      </g>
      <g id="top_ball-2" data-name="top_ball">
        <path class="cls-2" d="M766.38,115.4c-14.3,0-28-6-37.8-16.5-19.3-20.7-18.5-53,1.9-72,9.3-8.7,21.5-13.4,34.3-13.4,14.3,0,28,6,37.8,16.5,9.3,10,14.3,23,14,36.5-.3,13.7-6,26.2-15.9,35.5-9.3,8.7-21.5,13.4-34.3,13.4Z"/>
        <path class="cls-1" d="M764.78,22.8c11.2,0,22.5,4.5,30.9,13.5,15.8,17,15.2,43.3-1.4,58.8-7.8,7.3-17.8,10.9-27.8,10.9-11.2,0-22.5-4.5-30.9-13.5-15.8-17-15.2-43.3,1.4-58.8,7.8-7.3,17.8-10.9,27.8-10.9M764.78,4v18.8V4c-15.2,0-29.7,5.7-40.6,16-24.2,22.5-25.2,60.9-2.4,85.4,11.6,12.4,27.9,19.5,44.7,19.5,15.2,0,29.7-5.7,40.6-16,24.2-22.5,25.2-60.9,2.4-85.4-11.6-12.4-27.9-19.5-44.7-19.5h0Z"/>
      </g>
    </g>
  </g>
  <g id="left_bumerang">
    <g id="paths-3" data-name="paths">
      <g id="bottom_path-2" data-name="bottom_path">
        <path class="cls-2" d="M92.28,745.3c-2.5,0-5-1.1-6.8-2.9-4.8-5-12.5-7.9-20.5-7.9-3.2,0-6.3.5-9.2,1.4-.7.2-1.3.3-2,.4h0c-.2,0-.5.1-.7.1h-.3c-3.2,0-6.2-1.6-7.9-4.3-1.8-2.9-2-6.5-.4-9.5,0,0,0-.1.1-.1,1.7-3.5,19.2-42.1,39.4-86.7,37-81.4,82.9-183,87.8-192.4,1.4-2.7,3.9-4.5,6.9-5,.5-.1,1-.1,1.5-.1,2.5,0,4.8,1,6.6,2.7,3.8,3.7,21.5,6.5,31.1,6.5h.2c.4-.1.7-.1,1.1-.1,2.7,0,5.3,1.1,7.1,3.3,2.4,2.8,2.9,6.7,1.5,10.1l-127,279.1c-1.3,2.9-3.9,4.8-7,5.4-.4,0-1,0-1.5,0Z"/>
        <path class="cls-1" d="M180.18,447.7c7.6,7.5,31.5,9.2,37.7,9.2.7,0,1.2,0,1.4-.1l-127,279.1c-6.9-7.1-17.1-10.8-27.3-10.8-4.2,0-8.3.7-12.1,1.9.6-.6,119.6-264.3,127.3-279.3M219.18,456.8h0M52.88,727h0M180.18,428.9c-1,0-2,.1-3,.2-5.9,1-11,4.7-13.8,10-4.6,8.9-42.5,92.6-88,192.9-19,42-37,81.7-39.2,86.3-1.3,2.5-2,5.2-2.1,8.2-.2,8.1,4.8,15.5,12.4,18.3,1.5.6,3,.9,4.6,1.1.7.1,1.2.1,1.9.1,1.7,0,3.4-.2,5.1-.7.2-.1.5-.2.7-.2,1.9-.6,4.1-.9,6.2-.9,5.5,0,10.7,2,13.7,5,3.6,3.7,8.5,5.7,13.6,5.7,1.1,0,2.1-.1,3.2-.2,6.1-1.1,11.4-5.1,13.9-10.7l126.8-278.8c1.2-2.5,1.9-5.2,1.9-8.2,0-10.1-7.9-18.4-17.9-18.8h-.9c-.4,0-.9,0-1.3.1h-.3c-7.5-.1-21-2.1-24.7-4.3-3.6-3.4-8.2-5.1-12.8-5.1h0Z"/>
      </g>
      <g id="top_path-2" data-name="top_path">
        <path class="cls-2" d="M180.28,396.9c-.6,0-1.1-.1-1.6-.2-3.1-.6-5.7-2.6-7-5.5L45.78,108.4c-1.5-3.3-.9-7.1,1.4-9.8,1.8-2.2,4.5-3.4,7.2-3.4.7,0,1.5.1,2.2.2,2,.5,4.3.7,6.5.7,8.6,0,17.3-3.7,23.1-9.8,1.8-1.9,4.3-2.9,6.8-2.9.5,0,1.1.1,1.6.2,3.1.6,5.7,2.5,7,5.5l126.8,284.7c1.6,3.4.9,7.5-1.7,10.2-1.8,2-4.3,3-6.9,3-1.1,0-2.1-.2-3.2-.6-2.4-.8-5-1.2-7.8-1.2-8,0-16.5,3.5-21.6,8.8-1.9,1.9-4.4,2.9-6.9,2.9Z"/>
        <path class="cls-1" d="M92.98,92.9l126.7,284.7c-3.4-1.2-7.2-1.8-11-1.8-10.6,0-21.5,4.5-28.4,11.8L54.38,104.7c2.9.7,5.8,1,8.7,1,11.2,0,22.4-4.9,29.9-12.8M92.98,74c-5.2,0-10.1,2.1-13.7,5.9-4,4.3-10.3,6.9-16.3,6.9-1.5,0-2.9-.2-4.3-.5-1.5-.3-2.9-.5-4.3-.5-5.5,0-10.9,2.5-14.5,6.8-4.6,5.5-5.7,13.2-2.7,19.7l125.9,282.9c2.5,5.7,7.8,9.8,14,10.9,1.1.2,2.1.2,3.2.2,5.1,0,10-2,13.6-5.8,3.4-3.5,9.5-6,14.8-6,1.7,0,3.3.2,4.6.7,2,.7,4.2,1.1,6.3,1.1,5.2,0,10.2-2.1,13.8-6.1,5.2-5.6,6.5-13.6,3.4-20.5L110.18,85.2c-2.5-5.7-7.8-9.8-14-10.9-1-.2-2.1-.3-3.2-.3h0Z"/>
      </g>
    </g>
    <g id="balls-3" data-name="balls">
      <g id="bottom_ball-3" data-name="bottom_ball">
        <path class="cls-2" d="M63.18,817.3c-12.8,0-24.9-4.8-34.3-13.4-20.4-19-21.2-51.4-1.9-72,9.8-10.5,23.5-16.5,37.8-16.5,12.8,0,24.9,4.8,34.3,13.4,20.4,19,21.2,51.4,1.9,72-9.8,10.4-23.5,16.5-37.8,16.5Z"/>
        <path class="cls-1" d="M64.78,724.7c10,0,20,3.6,27.8,10.9,16.6,15.5,17.2,41.8,1.4,58.8-8.4,8.9-19.7,13.5-30.9,13.5-10,0-20-3.6-27.8-10.9-16.6-15.5-17.2-41.8-1.4-58.8,8.4-9,19.7-13.5,30.9-13.5M64.78,705.9h0c-16.8,0-33.1,7.1-44.7,19.5-22.9,24.5-21.8,62.8,2.4,85.4,11.1,10.3,25.5,16,40.6,16,16.8,0,33.1-7.1,44.7-19.5,22.9-24.5,21.8-62.8-2.4-85.4-10.9-10.4-25.3-16-40.6-16h0Z"/>
      </g>
      <g id="center_ball-3" data-name="center_ball">
        <path class="cls-2" d="M207.48,468.1c-12.8,0-24.9-4.8-34.3-13.4-9.9-9.3-15.6-21.9-15.9-35.5-.3-13.6,4.7-26.5,14-36.5,9.8-10.5,23.5-16.5,37.8-16.5,12.8,0,24.9,4.8,34.3,13.4,20.4,19,21.2,51.4,1.9,72-9.8,10.5-23.5,16.5-37.8,16.5Z"/>
        <path class="cls-1" d="M209.08,375.5c10,0,20,3.6,27.8,10.9,16.6,15.5,17.2,41.8,1.4,58.8-8.4,8.9-19.7,13.5-30.9,13.5-10,0-20-3.6-27.8-10.9-16.6-15.5-17.2-41.8-1.4-58.8,8.4-8.9,19.7-13.5,30.9-13.5M209.08,356.6h0c-16.8,0-33.1,7.1-44.7,19.5-11.1,11.8-16.9,27.2-16.5,43.3.4,16.2,7.1,31.1,18.8,42.1,11.1,10.3,25.5,16,40.6,16,16.8,0,33.1-7.1,44.7-19.5,22.9-24.5,21.8-62.8-2.4-85.4-10.8-10.3-25.2-16-40.5-16h0Z"/>
      </g>
      <g id="top_ball-3" data-name="top_ball">
        <path class="cls-2" d="M62.98,115.1c-12.8,0-24.9-4.8-34.3-13.4-9.9-9.3-15.6-21.9-15.9-35.5s4.7-26.5,14-36.5c9.9-10.6,23.7-16.6,38-16.6,12.8,0,24.9,4.8,34.3,13.4,20.4,19,21.2,51.4,1.9,72-9.9,10.6-23.7,16.6-38,16.6Z"/>
        <path class="cls-1" d="M64.78,22.6c10,0,20,3.6,27.8,10.9,16.6,15.5,17.2,41.8,1.4,58.8-8.4,8.9-19.7,13.5-30.9,13.5-10,0-20-3.6-27.8-10.9-16.6-15.5-17.2-41.8-1.4-58.8,8.3-9,19.6-13.5,30.9-13.5M64.78,3.7h0c-16.9,0-33.1,7-44.7,19.4C-2.82,47.6-1.72,85.9,22.48,108.5c11.1,10.3,25.5,16,40.6,16,16.8,0,33.1-7.1,44.7-19.5,11.1-11.8,16.9-27.2,16.5-43.3-.4-16.2-7.1-31.1-18.8-42.1-11.2-10.2-25.6-15.9-40.7-15.9h0Z"/>
      </g>
    </g>
  </g>
</svg>