<?xml version="1.0" standalone="no"?>
<!DOCTYPE svg PUBLIC "-//W3C//DTD SVG 20010904//EN"
 "http://www.w3.org/TR/2001/REC-SVG-20010904/DTD/svg10.dtd">
<svg version="1.0" xmlns="http://www.w3.org/2000/svg"
 width="1323.000000pt" height="328.000000pt" viewBox="0 0 1323.000000 328.000000"
 preserveAspectRatio="xMidYMid meet">

<g transform="translate(0.000000,328.000000) scale(0.100000,-0.100000)"
fill="#000000" stroke="none">
<path d="M8105 3215 c-94 -33 -318 -146 -480 -243 -250 -149 -345 -220 -345
-257 0 -15 6 -25 14 -25 8 0 77 40 153 88 76 49 172 108 213 132 41 24 82 49
90 56 9 8 75 43 148 79 129 64 180 77 189 48 7 -20 -229 -289 -738 -843 l-235
-255 -64 -3 c-58 -2 -363 -37 -415 -47 -175 -35 -435 -123 -435 -147 0 -5 -7
-8 -16 -8 -30 0 -180 -107 -272 -195 -159 -151 -225 -275 -226 -425 0 -75 3
-91 28 -137 51 -93 156 -143 275 -129 58 6 203 54 209 68 2 4 9 8 14 8 17 0
153 86 243 154 136 102 200 160 513 470 l302 300 243 7 c133 4 302 10 375 13
128 6 132 6 132 -14 0 -11 -64 -97 -142 -193 -294 -356 -438 -555 -438 -602 0
-39 35 -75 73 -75 33 0 94 53 153 133 23 32 94 120 157 195 63 75 194 233 291
349 109 130 186 215 199 218 12 2 87 6 167 9 80 3 146 6 148 6 1 0 2 11 2 25
0 36 -44 55 -129 55 -77 0 -101 6 -101 25 0 6 28 45 63 86 34 41 105 126 157
189 52 63 166 198 255 299 330 378 363 422 350 461 -9 29 -39 42 -68 31 -38
-15 -153 -123 -298 -281 -73 -80 -136 -147 -139 -150 -10 -8 -482 -541 -524
-592 -22 -26 -51 -51 -65 -57 -14 -5 -145 -14 -291 -21 -146 -6 -311 -14 -367
-17 -90 -5 -103 -4 -103 10 0 15 23 42 250 287 58 63 128 140 155 170 28 30
75 82 106 115 52 56 112 122 297 328 104 116 162 204 162 245 0 11 -16 34 -35
51 -45 39 -100 41 -200 6z m-1117 -1339 c8 -40 -519 -538 -783 -741 -145 -111
-290 -154 -373 -111 -147 76 16 369 354 636 10 8 51 35 91 59 132 79 283 130
448 150 50 7 119 15 155 20 86 12 104 10 108 -13z"/>
<path d="M2582 3164 c-286 -52 -711 -243 -1022 -461 -167 -116 -471 -371 -478
-400 -2 -7 -7 -13 -12 -13 -23 0 -216 -224 -305 -355 -145 -215 -216 -481
-171 -641 35 -120 126 -220 252 -277 67 -31 73 -32 209 -31 138 1 142 1 261
42 185 64 337 143 476 249 101 77 164 189 124 222 -14 11 -21 9 -52 -15 -242
-191 -548 -343 -755 -375 -98 -15 -236 -5 -294 21 -171 78 -148 354 55 665 71
108 167 233 191 248 10 6 19 20 19 29 0 10 5 18 11 18 6 0 55 42 108 93 302
289 794 645 1094 791 207 100 423 149 494 112 43 -22 63 -53 63 -98 0 -61 -18
-87 -84 -119 -189 -94 -483 -338 -622 -515 -116 -148 -153 -248 -118 -315 31
-61 79 -78 170 -59 132 28 298 163 490 400 117 145 204 291 254 429 21 57 27
65 66 81 23 10 45 23 49 30 12 19 -17 42 -46 36 -32 -6 -43 5 -58 59 -11 44
-48 99 -79 121 -26 18 -137 44 -182 43 -19 -1 -68 -8 -108 -15z m188 -398 c0
-25 -173 -254 -294 -390 -190 -213 -305 -307 -356 -291 -67 21 17 157 237 386
121 125 191 185 307 263 70 46 106 57 106 32z"/>
<path d="M4693 2558 c-38 -31 -187 -197 -318 -356 -71 -86 -75 -88 -270 -97
-142 -6 -396 -31 -427 -41 -21 -6 -24 -40 -5 -47 6 -2 100 -1 207 4 291 12
320 12 326 -6 7 -16 -89 -127 -207 -242 -90 -86 -489 -400 -706 -553 -85 -60
-127 -82 -218 -111 -95 -30 -135 -22 -135 25 0 21 108 167 230 311 108 127
203 254 219 293 13 31 12 35 -8 55 -21 21 -22 22 -52 5 -17 -10 -35 -18 -41
-18 -6 0 -29 20 -52 45 -38 40 -47 45 -87 45 -54 0 -179 -34 -234 -63 -96 -51
-244 -158 -420 -303 -80 -66 -335 -256 -400 -299 -72 -48 -164 -95 -182 -95
-18 0 -76 -30 -85 -44 -17 -27 33 -46 70 -26 9 5 52 25 96 44 78 35 172 95
296 188 78 58 95 61 85 16 -30 -148 -1 -212 104 -225 46 -5 59 -2 124 30 39
20 98 58 130 84 92 76 120 94 129 85 4 -4 -1 -26 -12 -47 -26 -51 -26 -125 -1
-156 17 -21 30 -24 99 -27 176 -8 292 57 749 421 162 129 191 130 108 3 -94
-143 -146 -307 -116 -365 27 -50 141 -82 169 -48 13 16 5 28 -32 47 -66 34
-59 61 65 249 114 173 521 691 557 710 9 4 93 11 186 14 174 5 205 13 191 49
-9 23 -38 26 -161 17 -59 -4 -112 -5 -116 -3 -19 12 -5 46 40 101 101 123 202
279 202 313 0 12 -37 50 -49 50 -4 0 -26 -15 -48 -32z m-1508 -772 c47 -34
-16 -139 -182 -303 -120 -118 -327 -286 -393 -319 -94 -47 -125 -13 -77 85 28
58 350 385 457 464 111 82 158 100 195 73z"/>
<path d="M11514 1927 c-52 -30 -194 -143 -194 -154 0 -7 -5 -13 -11 -13 -9 0
-213 -163 -378 -302 -61 -51 -308 -241 -356 -273 -65 -44 -200 -95 -252 -95
-34 0 -63 22 -63 47 0 32 95 176 171 258 71 77 268 328 284 362 15 31 15 36 1
59 -12 17 -26 24 -48 24 -35 0 -89 -52 -441 -423 -163 -171 -270 -257 -318
-257 -79 0 -21 122 156 328 144 167 175 206 199 247 39 66 40 82 12 110 -46
46 -102 30 -207 -61 -35 -30 -104 -89 -154 -131 -49 -41 -101 -85 -115 -97
-14 -11 -50 -42 -80 -67 -139 -116 -444 -339 -465 -339 -5 0 -16 -6 -24 -14
-9 -7 -38 -18 -64 -25 -82 -20 -125 -61 -79 -75 17 -6 122 28 169 53 165 88
301 186 523 376 156 133 198 151 119 49 -95 -121 -129 -176 -149 -243 -24 -81
-25 -122 -5 -161 17 -33 70 -54 111 -44 57 13 160 75 232 139 65 58 102 79
102 58 0 -5 -7 -26 -15 -48 -48 -134 9 -196 168 -182 106 9 234 73 414 208 48
36 73 33 73 -8 0 -87 61 -172 135 -191 59 -15 347 -10 353 6 2 6 13 12 25 13
23 0 53 15 286 136 83 43 146 71 155 67 12 -5 16 -21 16 -68 0 -72 20 -112 75
-146 31 -19 51 -23 138 -24 56 0 114 2 130 7 53 15 21 57 -43 57 -77 0 -130
51 -130 124 0 62 16 85 72 109 99 42 281 138 364 192 142 93 213 172 229 255
10 55 -8 88 -62 112 -45 20 -49 20 -120 4 -178 -39 -430 -239 -575 -456 -61
-91 -66 -95 -118 -110 -55 -16 -170 -71 -265 -126 -85 -49 -251 -118 -265
-109 -18 11 -10 37 25 78 19 22 35 44 35 49 0 4 7 8 15 8 9 0 15 9 15 25 0 14
4 25 10 25 7 0 65 81 115 162 101 164 186 348 185 401 -1 32 -22 65 -56 88
-34 22 -33 22 -60 6z m994 -125 c8 -53 -91 -169 -229 -265 -169 -120 -249
-160 -249 -126 0 24 119 177 204 263 106 107 184 157 236 154 28 -2 36 -8 38
-26z m-1062 -25 c6 -16 -102 -247 -116 -247 -6 0 -10 -13 -10 -30 0 -16 -6
-33 -14 -37 -7 -4 -20 -22 -29 -38 -21 -41 -102 -151 -146 -197 -43 -47 -78
-50 -87 -10 -11 46 -44 106 -71 128 -20 17 -24 28 -19 45 4 15 72 76 177 159
194 153 179 141 241 198 50 44 65 50 74 29z m-510 -475 c14 -9 46 -75 64 -130
16 -50 5 -68 -34 -58 -43 11 -104 149 -81 186 7 12 35 13 51 2z"/>
<path d="M9221 1844 c-36 -22 -50 -25 -85 -19 -91 17 -95 15 -222 -91 -496
-413 -746 -594 -864 -624 -55 -14 -90 -36 -90 -55 0 -51 150 -2 306 100 81 54
277 200 293 219 18 22 51 21 51 -2 0 -10 -8 -34 -19 -54 -52 -103 -50 -208 6
-264 32 -32 37 -34 106 -34 139 0 261 82 475 320 155 173 232 310 232 414 0
47 -4 58 -31 85 -40 41 -95 42 -158 5z m107 -54 c27 -26 27 -34 0 -107 -39
-103 -132 -233 -168 -233 -10 0 -32 12 -49 26 -27 22 -31 32 -31 75 0 107 122
256 211 259 8 0 25 -9 37 -20z m-318 -251 c0 -44 32 -101 68 -121 13 -7 28
-21 34 -32 9 -17 -2 -31 -82 -108 -157 -149 -256 -194 -303 -136 -25 30 -18
97 19 170 37 74 78 125 217 270 26 27 47 7 47 -43z"/>
</g>
</svg>
