<?xml version="1.0" encoding="iso-8859-1"?>
<!-- Uploaded to: SVG Repo, www.svgrepo.com, Generator: SVG Repo Mixer Tools -->
<svg height="800px" width="800px" version="1.1" id="Capa_1" xmlns="http://www.w3.org/2000/svg" xmlns:xlink="http://www.w3.org/1999/xlink" 
	 viewBox="0 0 48.276 48.276" xml:space="preserve">
<g>
	<g>
		<path style="fill:#010002;" d="M43.963,4.553H4.311C1.934,4.553,0,6.486,0,8.865v24.874c0,2.378,1.934,4.311,4.311,4.311h7.273
			c-0.488,1.097-0.492,2.366,0.064,3.463c0.689,1.354,2.08,2.21,3.6,2.21h17.776c1.52,0,2.91-0.855,3.6-2.21
			c0.294-0.579,0.438-1.203,0.438-1.829c0-0.56-0.125-1.115-0.355-1.634h7.257c2.378,0,4.312-1.933,4.312-4.311V8.865
			C48.274,6.486,46.341,4.553,43.963,4.553z M43.842,33.617H33.604L27.401,25.1c-0.759-1.04-1.974-1.657-3.266-1.657
			c-1.291,0-2.505,0.617-3.266,1.657l-6.201,8.517H4.433V8.986h39.408L43.842,33.617L43.842,33.617z"/>
	</g>
</g>
</svg>